<svg width="112" height="44" viewBox="0 0 112 44" fill="none" xmlns="http://www.w3.org/2000/svg">
<g clip-path="url(#clip0_267_1483)">
<path d="M40.9977 21.9601L40.7779 8.23333C40.0961 3.18786 36.8831 0.194804 32.4218 0H8.57815C4.11684 0.194804 0.903848 3.18786 0.221981 8.23333L0.00221675 21.9601C-0.0557057 27.0972 1.00777 29.4138 4.81021 32.4182L20.494 44H20.5055L36.1893 32.4182C39.9921 29.4138 41.0569 27.0972 40.9977 21.9601ZM25.8097 8.03811C26.8814 8.03833 27.9291 8.35381 28.8202 8.94467C29.7114 9.53552 30.4059 10.3752 30.8162 11.3577C31.2264 12.3401 31.3339 13.4211 31.125 14.4642C30.9162 15.5072 30.4003 16.4654 29.6428 17.2176L24.0567 22.757L20.534 19.262L26.1197 13.7225C26.1751 13.6676 26.3258 13.5154 26.2126 13.2484C26.0993 12.9813 25.888 12.9809 25.8101 12.9809H14.2009L9.21785 8.03684L25.8097 8.03811ZM15.2652 30.4807C14.1932 30.481 13.1453 30.1659 12.2538 29.5752C11.3624 28.9844 10.6676 28.1447 10.2573 27.1621C9.84693 26.1795 9.73954 25.0982 9.94866 24.0551C10.1578 23.0119 10.674 22.0537 11.4321 21.3017L17.0114 15.7661L20.5336 19.2611L14.9543 24.7968C14.8989 24.8517 14.7456 25.0017 14.8589 25.2713C14.9722 25.5409 15.1834 25.5384 15.2639 25.5384H26.8591L31.8421 30.4824L15.2652 30.4807Z" fill="#8071F8"/>
<path d="M1.16281 8.54116C1.46918 6.27475 2.32007 4.3855 3.62508 3.08125C4.89576 1.8112 6.60089 1.09194 8.55714 1H31.951C33.8206 1.08766 35.4667 1.75176 36.7177 2.92132C37.7666 3.90485 38.5446 5.25016 39 6.85974C37.3702 6.71007 35.7191 6.63395 34.0767 6.63395C21.3531 6.63395 9.42477 11.118 1 19L1.16281 8.54116Z" fill="url(#paint0_linear_267_1483)"/>
<path d="M87 6V17.3411C87 18.8358 86.478 20.1422 85.4214 21.2877C84.3647 22.4333 82.9601 23 81.1803 23H73.8197C72.0662 23 70.6608 22.4341 69.5791 21.2877C68.522 20.1422 68 18.8358 68 17.3411V6H72.317V16.6537C72.317 17.4084 72.5661 18.0143 73.0503 18.4587C73.5596 18.9306 74.1821 19.1591 74.9281 19.1591H80.1011C80.8722 19.1591 81.4943 18.9306 81.9789 18.4587C82.464 18.0143 82.7127 17.4084 82.7127 16.6537V6H87Z" fill="#1C1917"/>
<path d="M107.208 6H112L103.365 23H98.6468L90 6H94.9144L101.062 18.5821L107.208 6Z" fill="#1C1917"/>
<path d="M64.969 23H47V19.9151L57.6155 9.78451H47L47.031 6H64.1518V9.08449L53.5488 19.2142H65L64.969 23Z" fill="#1C1917"/>
<path d="M53 28.9799C53 29.0297 52.9959 29.0973 52.9886 29.1828H47.5443C47.5655 29.6045 47.6931 30.0148 47.9162 30.3785C48.1289 30.7219 48.4339 31.0039 48.7992 31.1949C49.1773 31.3926 49.6018 31.4938 50.0322 31.4886C50.489 31.4981 50.9392 31.3827 51.3305 31.1559C51.7217 30.9291 52.0379 30.6002 52.2423 30.2074H52.8184C52.546 30.784 52.1677 31.2271 51.6834 31.5366C51.1992 31.8461 50.6488 32.0006 50.0322 32C49.166 32 48.444 31.7136 47.8662 31.1408C47.2884 30.568 46.9997 29.8508 47 28.9891C47 28.142 47.2907 27.432 47.8721 26.8592C48.4535 26.2864 49.1736 26 50.0322 26C50.8985 26 51.6097 26.2847 52.166 26.854C52.7223 27.4233 53.0003 28.1319 53 28.9799ZM50.0322 26.5018C49.3664 26.5018 48.8036 26.7063 48.3438 27.1153C47.8841 27.5244 47.6212 28.0493 47.5552 28.6902H52.4643C52.4377 28.381 52.3531 28.0789 52.2146 27.7987C52.0859 27.5362 51.907 27.2993 51.687 27.1005C51.4699 26.9069 51.2152 26.7562 50.9375 26.6572C50.648 26.5531 50.3413 26.5005 50.0322 26.5018Z" fill="#5542F6"/>
<path d="M58 32H57.409L55.4905 29.2223L53.5802 32H53L55.1846 28.8662L53.2002 26H53.7912L55.5009 28.4775L57.2213 26H57.802L55.8072 28.8444L58 32Z" fill="#5542F6"/>
<path d="M62.0329 26.0002C62.8886 26.0002 63.5971 26.2877 64.1584 26.8628C64.7198 27.4378 65.0003 28.1602 65 29.03C65 29.9 64.7195 30.6225 64.1584 31.1972C63.5974 31.772 62.8888 32.0592 62.0329 32.0589C61.5268 32.0654 61.0273 31.943 60.5817 31.7032C60.1525 31.4717 59.7901 31.1339 59.5293 30.7221V34H59V26.1188H59.3882L59.4962 27.3912C59.7571 26.9654 60.1241 26.6146 60.5614 26.3731C61.011 26.1229 61.5183 25.9943 62.0329 26.0002ZM61.9888 31.5423C62.708 31.5423 63.3016 31.305 63.7694 30.8305C64.2372 30.3559 64.471 29.7558 64.4707 29.03C64.4707 28.3039 64.2369 27.7037 63.7694 27.2295C63.3018 26.7552 62.7083 26.5179 61.9888 26.5176C61.283 26.5176 60.6932 26.7567 60.2191 27.2348C59.7451 27.7128 59.5077 28.3112 59.5068 29.03C59.5068 29.749 59.7442 30.3474 60.2191 30.8252C60.694 31.303 61.2842 31.542 61.9896 31.5423H61.9888Z" fill="#5542F6"/>
<path d="M68.4914 26H69V26.5204H68.4586C67.8737 26.5204 67.4062 26.7197 67.0562 27.1182C66.7062 27.5167 66.5312 28.0333 66.5312 28.6681V32H66V26.0222H66.4006L66.4892 27.2064C66.907 26.4024 67.5744 26.0003 68.4914 26Z" fill="#5542F6"/>
<path d="M75 28.979C75 29.0288 74.9963 29.0965 74.9886 29.182H69.5441C69.5655 29.6038 69.6933 30.0143 69.9166 30.378C70.1294 30.7215 70.4346 31.0036 70.8 31.1947C71.1781 31.3925 71.6027 31.4936 72.0331 31.4884C72.4902 31.4981 72.9407 31.3828 73.3321 31.1559C73.7236 30.929 74.0399 30.5999 74.2442 30.2069H74.8224C74.548 30.7836 74.1696 31.2268 73.6869 31.5364C73.2042 31.8461 72.6534 32.0006 72.0345 32C71.1679 32 70.4457 31.7135 69.868 31.1405C69.2902 30.5676 69.0009 29.8501 69 28.9882C69 28.1408 69.2907 27.4307 69.8721 26.8577C70.4534 26.2847 71.1743 25.9988 72.0345 26C72.9011 26 73.6127 26.2847 74.1692 26.8542C74.7258 27.4237 75.0027 28.132 75 28.979ZM72.0345 26.5002C71.3684 26.5002 70.8054 26.7048 70.3458 27.1139C69.8861 27.5231 69.6232 28.0482 69.5568 28.6892H74.4681C74.4414 28.3799 74.3566 28.0778 74.2178 27.7975C74.0891 27.5349 73.9101 27.2979 73.6901 27.0991C73.4729 26.9053 73.2181 26.7546 72.9402 26.6556C72.6506 26.5515 72.3437 26.4989 72.0345 26.5002Z" fill="#5542F6"/>
<path d="M78.0062 32C77.4167 32 76.9443 31.8434 76.589 31.5302C76.2338 31.2171 76.0374 30.7898 76 30.2484H76.461C76.4995 30.6475 76.6566 30.9573 76.9322 31.1779C77.2079 31.3985 77.5713 31.5088 78.0223 31.5088C78.4739 31.5088 78.839 31.402 79.1175 31.1884C79.3961 30.9748 79.5354 30.6865 79.5354 30.3235C79.5382 30.1656 79.5053 30.0095 79.4395 29.8695C79.3844 29.7499 79.3075 29.6443 79.2138 29.5595C79.1007 29.4695 78.976 29.3993 78.8438 29.3512C78.7093 29.2955 78.5712 29.251 78.4307 29.2181C78.3158 29.1933 78.1557 29.1594 77.9505 29.1164C77.7777 29.088 77.6461 29.0631 77.5578 29.0417C77.4694 29.0203 77.3481 28.9884 77.1977 28.9456C77.0752 28.9141 76.9557 28.8697 76.8407 28.8129C76.7409 28.7581 76.6446 28.6956 76.5525 28.6261C76.4571 28.5587 76.374 28.4717 76.3079 28.3698C76.2448 28.2645 76.1962 28.1492 76.1638 28.0279C76.124 27.8825 76.1045 27.7311 76.106 27.5791C76.106 27.1094 76.2789 26.7285 76.6248 26.4366C76.9706 26.1447 77.4221 25.9991 77.9791 26C78.3506 26 78.6779 26.0677 78.9609 26.203C79.2238 26.3216 79.4505 26.5218 79.6139 26.7797C79.772 27.043 79.8618 27.3497 79.8735 27.666H79.4219C79.4114 27.491 79.3689 27.3201 79.297 27.1639C79.2279 27.0165 79.1293 26.8887 79.0088 26.7902C78.8733 26.6834 78.7221 26.6039 78.5619 26.5553C78.3702 26.4956 78.1719 26.4662 77.9729 26.468C77.5501 26.468 77.2107 26.5677 76.9546 26.7671C76.6986 26.9665 76.5704 27.2299 76.5702 27.5573C76.5686 27.6612 76.5832 27.7646 76.6134 27.8629C76.6389 27.9445 76.6744 28.0218 76.719 28.0926C76.7698 28.1646 76.8336 28.2241 76.9063 28.2672C76.9785 28.3149 77.054 28.356 77.1321 28.3903C77.2267 28.4278 77.3229 28.4598 77.4203 28.4864C77.5452 28.5222 77.6461 28.547 77.7231 28.561L78.0593 28.6252C78.232 28.6536 78.3652 28.6785 78.4578 28.6998C78.5505 28.7212 78.6773 28.7553 78.8376 28.8011C79.0831 28.8608 79.3152 28.9753 79.5197 29.1377C79.6238 29.2115 79.7135 29.3077 79.7835 29.4207C79.8508 29.5402 79.9026 29.6697 79.9375 29.8053C79.9806 29.9701 80.0016 30.141 79.9999 30.3126C79.9999 30.8182 79.819 31.2256 79.4572 31.535C79.0954 31.8444 78.6118 31.9994 78.0062 32Z" fill="#5542F6"/>
<path d="M83.0072 32C82.4178 32 81.9452 31.8434 81.5894 31.5303C81.2337 31.2172 81.0372 30.79 81 30.2487H81.4617C81.5 30.6477 81.6572 30.9574 81.9333 31.178C82.2094 31.3986 82.5731 31.5089 83.0245 31.5089C83.4764 31.5089 83.8417 31.4021 84.1205 31.1885C84.3992 30.9749 84.5386 30.6866 84.5386 30.3238C84.5413 30.1658 84.5082 30.0097 84.4423 29.8698C84.3872 29.7501 84.3103 29.6445 84.2164 29.5598C84.1033 29.47 83.9786 29.3997 83.8466 29.3516C83.7119 29.296 83.5737 29.2515 83.4332 29.2185C83.3177 29.1937 83.1573 29.1598 82.9522 29.1168C82.7793 29.0877 82.6483 29.0628 82.5593 29.0421C82.4702 29.0215 82.3501 28.9895 82.1989 28.9461C82.0775 28.9141 81.9591 28.8693 81.8453 28.8125C81.7453 28.7577 81.6489 28.6953 81.5568 28.6257C81.4613 28.5582 81.3781 28.4713 81.3116 28.3694C81.246 28.2646 81.195 28.1494 81.1603 28.0276C81.1205 27.8822 81.101 27.7309 81.1026 27.5789C81.1026 27.1092 81.2756 26.7284 81.6217 26.4365C81.9677 26.1446 82.4196 25.9991 82.9774 26C83.3486 26 83.676 26.0677 83.9597 26.203C84.223 26.3215 84.45 26.5217 84.6136 26.7796C84.7715 27.043 84.8613 27.3496 84.873 27.6658H84.4211C84.4108 27.4907 84.3683 27.3198 84.2961 27.1638C84.2271 27.0163 84.1284 26.8884 84.0077 26.7901C83.8723 26.6834 83.721 26.6039 83.5609 26.5553C83.3691 26.4956 83.1707 26.4662 82.9715 26.468C82.5486 26.468 82.209 26.5676 81.9525 26.767C81.6961 26.9663 81.568 27.2297 81.5682 27.5571C81.5664 27.661 81.5811 27.7644 81.6114 27.8626C81.6368 27.9443 81.6724 28.0216 81.7171 28.0923C81.768 28.1643 81.8318 28.2238 81.9046 28.2669C81.9768 28.3145 82.0524 28.3557 82.1305 28.39C82.2251 28.4275 82.3214 28.4595 82.419 28.486C82.5439 28.5218 82.6448 28.5467 82.7215 28.5606L83.0583 28.6248C83.2312 28.6539 83.3642 28.6788 83.4572 28.6995C83.5499 28.7208 83.6764 28.7549 83.8368 28.8007C83.965 28.8353 84.0904 28.8818 84.2116 28.9395C84.3184 28.997 84.4213 29.0631 84.5193 29.1373C84.6237 29.2109 84.7136 29.3071 84.7838 29.4202C84.8511 29.5396 84.9028 29.6691 84.9374 29.8047C84.9805 29.9695 85.0016 30.1404 84.9999 30.312C84.9999 30.8175 84.8189 31.2249 84.4568 31.5342C84.0948 31.8436 83.6116 31.9988 83.0072 32Z" fill="#5542F6"/>
</g>
<defs>
<linearGradient id="paint0_linear_267_1483" x1="17.372" y1="-6.58349" x2="20.4466" y2="15.2858" gradientUnits="userSpaceOnUse">
<stop stop-color="white"/>
<stop offset="0.11" stop-color="#DFDFDF" stop-opacity="0.74"/>
<stop offset="0.22" stop-color="#C2C2C2" stop-opacity="0.52"/>
<stop offset="0.33" stop-color="#AAAAAA" stop-opacity="0.33"/>
<stop offset="0.43" stop-color="#989898" stop-opacity="0.19"/>
<stop offset="0.52" stop-color="#8B8B8B" stop-opacity="0.08"/>
<stop offset="0.6" stop-color="#838383" stop-opacity="0.02"/>
<stop offset="0.67" stop-color="#808080" stop-opacity="0"/>
</linearGradient>
<clipPath id="clip0_267_1483">
<rect width="112" height="44" fill="white"/>
</clipPath>
</defs>
</svg>
