<svg width="41" height="44" viewBox="0 0 41 44" fill="none" xmlns="http://www.w3.org/2000/svg">
<path d="M40.9977 21.9601L40.7779 8.23333C40.0961 3.18786 36.8831 0.194804 32.4218 0H8.57815C4.11684 0.194804 0.903848 3.18786 0.221981 8.23333L0.00221675 21.9601C-0.0557057 27.0972 1.00777 29.4138 4.81021 32.4182L20.494 44H20.5055L36.1893 32.4182C39.9921 29.4138 41.0569 27.0972 40.9977 21.9601ZM25.8097 8.03811C26.8814 8.03833 27.9291 8.35381 28.8202 8.94467C29.7114 9.53552 30.4059 10.3752 30.8162 11.3577C31.2264 12.3401 31.3339 13.4211 31.125 14.4642C30.9162 15.5072 30.4003 16.4654 29.6428 17.2176L24.0567 22.757L20.534 19.262L26.1197 13.7225C26.1751 13.6676 26.3258 13.5154 26.2126 13.2484C26.0993 12.9813 25.888 12.9809 25.8101 12.9809H14.2009L9.21785 8.03684L25.8097 8.03811ZM15.2652 30.4807C14.1932 30.481 13.1453 30.1659 12.2538 29.5752C11.3624 28.9844 10.6676 28.1447 10.2573 27.1621C9.84693 26.1795 9.73954 25.0982 9.94866 24.0551C10.1578 23.0119 10.674 22.0537 11.4321 21.3017L17.0114 15.7661L20.5336 19.2611L14.9543 24.7968C14.8989 24.8517 14.7456 25.0017 14.8589 25.2713C14.9722 25.5409 15.1834 25.5384 15.2639 25.5384H26.8591L31.8421 30.4824L15.2652 30.4807Z" fill="#8071F8"/>
</svg>
